%TF.GenerationSoftware,KiCad,Pcbnew,8.0.6*%
%TF.CreationDate,2024-11-22T14:42:32+09:00*%
%TF.ProjectId,traning,7472616e-696e-4672-9e6b-696361645f70,rev?*%
%TF.SameCoordinates,Original*%
%TF.FileFunction,Copper,L1,Top*%
%TF.FilePolarity,Positive*%
%FSLAX46Y46*%
G04 Gerber Fmt 4.6, Leading zero omitted, Abs format (unit mm)*
G04 Created by KiCad (PCBNEW 8.0.6) date 2024-11-22 14:42:32*
%MOMM*%
%LPD*%
G01*
G04 APERTURE LIST*
%TA.AperFunction,ComponentPad*%
%ADD10O,1.400000X1.400000*%
%TD*%
%TA.AperFunction,ComponentPad*%
%ADD11C,1.400000*%
%TD*%
%TA.AperFunction,ComponentPad*%
%ADD12R,1.500000X1.500000*%
%TD*%
%TA.AperFunction,ComponentPad*%
%ADD13C,1.500000*%
%TD*%
%TA.AperFunction,ComponentPad*%
%ADD14O,1.700000X1.700000*%
%TD*%
%TA.AperFunction,ComponentPad*%
%ADD15R,1.700000X1.700000*%
%TD*%
%TA.AperFunction,ComponentPad*%
%ADD16C,1.800000*%
%TD*%
%TA.AperFunction,ComponentPad*%
%ADD17R,1.800000X1.800000*%
%TD*%
%TA.AperFunction,ComponentPad*%
%ADD18R,1.600000X1.600000*%
%TD*%
%TA.AperFunction,ComponentPad*%
%ADD19C,1.600000*%
%TD*%
%TA.AperFunction,ViaPad*%
%ADD20C,0.600000*%
%TD*%
%TA.AperFunction,Conductor*%
%ADD21C,0.200000*%
%TD*%
G04 APERTURE END LIST*
D10*
%TO.P,R4,2*%
%TO.N,Net-(Q2-C)*%
X149860000Y-78740000D03*
D11*
%TO.P,R4,1*%
%TO.N,Net-(D2-K)*%
X149860000Y-71120000D03*
%TD*%
D10*
%TO.P,R3,2*%
%TO.N,Net-(Q1-B)*%
X144780000Y-78740000D03*
D11*
%TO.P,R3,1*%
%TO.N,+5V*%
X144780000Y-71120000D03*
%TD*%
D10*
%TO.P,R2,2*%
%TO.N,Net-(Q2-B)*%
X134620000Y-78740000D03*
D11*
%TO.P,R2,1*%
%TO.N,+5V*%
X134620000Y-71120000D03*
%TD*%
D10*
%TO.P,R1,2*%
%TO.N,Net-(Q1-C)*%
X129540000Y-78740000D03*
D11*
%TO.P,R1,1*%
%TO.N,Net-(D1-K)*%
X129540000Y-71120000D03*
%TD*%
D12*
%TO.P,Q2,1,E*%
%TO.N,GND*%
X149860000Y-99060000D03*
D13*
%TO.P,Q2,2,C*%
%TO.N,Net-(Q2-C)*%
X149860000Y-96520000D03*
%TO.P,Q2,3,B*%
%TO.N,Net-(Q2-B)*%
X149860000Y-93980000D03*
%TD*%
%TO.P,Q1,3,B*%
%TO.N,Net-(Q1-B)*%
X132080000Y-93980000D03*
%TO.P,Q1,2,C*%
%TO.N,Net-(Q1-C)*%
X132080000Y-96520000D03*
D12*
%TO.P,Q1,1,E*%
%TO.N,GND*%
X132080000Y-99060000D03*
%TD*%
D14*
%TO.P,J1,4,Pin_4*%
%TO.N,GND*%
X119380000Y-86360000D03*
%TO.P,J1,3,Pin_3*%
X119380000Y-83820000D03*
%TO.P,J1,2,Pin_2*%
%TO.N,+5V*%
X119380000Y-81280000D03*
D15*
%TO.P,J1,1,Pin_1*%
X119380000Y-78740000D03*
%TD*%
D16*
%TO.P,D2,2,A*%
%TO.N,+5V*%
X149860000Y-60960000D03*
D17*
%TO.P,D2,1,K*%
%TO.N,Net-(D2-K)*%
X149860000Y-63500000D03*
%TD*%
%TO.P,D1,1,K*%
%TO.N,Net-(D1-K)*%
X129540000Y-63500000D03*
D16*
%TO.P,D1,2,A*%
%TO.N,+5V*%
X129540000Y-60960000D03*
%TD*%
D18*
%TO.P,C2,1*%
%TO.N,Net-(Q1-B)*%
X147320000Y-86360000D03*
D19*
%TO.P,C2,2*%
%TO.N,Net-(Q2-C)*%
X145320000Y-86360000D03*
%TD*%
D18*
%TO.P,C1,1*%
%TO.N,Net-(Q1-C)*%
X132620000Y-86360000D03*
D19*
%TO.P,C1,2*%
%TO.N,Net-(Q2-B)*%
X134620000Y-86360000D03*
%TD*%
D20*
%TO.N,Net-(Q2-B)*%
X142240000Y-93980000D03*
X139700000Y-91440000D03*
%TD*%
D21*
%TO.N,+5V*%
X144780000Y-60960000D02*
X144780000Y-71120000D01*
X144780000Y-60960000D02*
X149860000Y-60960000D01*
X134620000Y-60960000D02*
X144780000Y-60960000D01*
%TO.N,Net-(D2-K)*%
X149860000Y-63500000D02*
X149860000Y-71120000D01*
%TO.N,Net-(Q2-B)*%
X139700000Y-91440000D02*
X142240000Y-93980000D01*
%TO.N,Net-(Q2-C)*%
X145320000Y-91980000D02*
X145320000Y-86360000D01*
X149860000Y-96520000D02*
X145320000Y-91980000D01*
%TO.N,Net-(Q1-C)*%
X131030000Y-87950000D02*
X132620000Y-86360000D01*
X131030000Y-95470000D02*
X131030000Y-87950000D01*
X132080000Y-96520000D02*
X131030000Y-95470000D01*
%TO.N,GND*%
X132080000Y-99060000D02*
X149860000Y-99060000D01*
X119380000Y-86360000D02*
X119380000Y-99060000D01*
X119380000Y-99060000D02*
X132080000Y-99060000D01*
%TO.N,Net-(Q2-C)*%
X145320000Y-86900000D02*
X145320000Y-86360000D01*
X145880000Y-87460000D02*
X145320000Y-86900000D01*
X149860000Y-86020000D02*
X148420000Y-87460000D01*
X148420000Y-87460000D02*
X145880000Y-87460000D01*
X149860000Y-78740000D02*
X149860000Y-86020000D01*
%TO.N,Net-(Q1-B)*%
X144780000Y-83820000D02*
X147320000Y-86360000D01*
X144780000Y-78740000D02*
X144780000Y-83820000D01*
%TO.N,Net-(Q1-C)*%
X129540000Y-83280000D02*
X132620000Y-86360000D01*
X129540000Y-78740000D02*
X129540000Y-83280000D01*
%TO.N,Net-(Q2-B)*%
X134620000Y-78740000D02*
X134620000Y-86360000D01*
%TO.N,+5V*%
X134620000Y-60960000D02*
X134620000Y-71120000D01*
X129540000Y-60960000D02*
X134620000Y-60960000D01*
%TO.N,Net-(D1-K)*%
X129540000Y-63500000D02*
X129540000Y-71120000D01*
%TO.N,+5V*%
X119380000Y-60960000D02*
X129540000Y-60960000D01*
X119380000Y-78740000D02*
X119380000Y-60960000D01*
%TD*%
M02*
